<svg width="19" height="17" viewBox="0 0 19 17" fill="none" xmlns="http://www.w3.org/2000/svg">
<path fill-rule="evenodd" clip-rule="evenodd" d="M15.9645 3.137C16.7314 2.63309 17.3199 1.83392 17.596 0.88219C16.8778 1.34975 16.0847 1.68809 15.2381 1.87116C14.5626 1.07783 13.5971 0.583344 12.5286 0.583344C10.4788 0.583344 8.81792 2.40918 8.81792 4.66084C8.81792 4.98078 8.84851 5.29219 8.91227 5.58969C5.82798 5.41918 3.09308 3.79751 1.2612 1.32866C0.94153 1.93309 0.758859 2.63309 0.758859 3.37975C0.758859 4.79411 1.41415 6.04245 2.41022 6.77475C1.80189 6.75411 1.22932 6.56834 0.72784 6.26501V6.31527C0.72784 8.29142 2.00654 9.94001 3.70701 10.3133C3.39466 10.4089 3.06766 10.4569 2.72774 10.4569C2.48906 10.4569 2.25512 10.4323 2.03023 10.3847C2.50156 12.0041 3.87288 13.1847 5.49796 13.2161C4.22659 14.3105 2.62607 14.9616 0.887246 14.9616C0.587821 14.9616 0.291412 14.9441 0.00146484 14.9055C1.64464 16.0619 3.59543 16.7372 5.69226 16.7372C12.5213 16.7372 16.2536 10.5233 16.2536 5.13469C16.2536 4.95745 16.2514 4.7811 16.2441 4.60745C16.9692 4.03219 17.6003 3.31334 18.0962 2.49533C17.4302 2.81975 16.7146 3.03918 15.9645 3.137Z" fill="white"/>
</svg>
