<svg width="86" height="21" viewBox="0 0 86 21" fill="none" xmlns="http://www.w3.org/2000/svg">
<path fill-rule="evenodd" clip-rule="evenodd" d="M6.30257 20.891H2.10028V10.5692H0V7.01263H2.10028V4.87718C2.10028 1.97622 3.28506 0.25 6.65456 0.25H9.45882V3.80788H7.70621C6.39477 3.80788 6.30774 4.30462 6.30774 5.23256L6.30214 7.01263H9.4782L9.1064 10.5692H6.30214V20.891H6.30257Z" fill="white"/>
<path fill-rule="evenodd" clip-rule="evenodd" d="M44.9645 5.137C45.7314 4.63309 46.3199 3.83392 46.596 2.88219C45.8778 3.34975 45.0847 3.68809 44.2381 3.87116C43.5626 3.07783 42.5971 2.58334 41.5286 2.58334C39.4788 2.58334 37.8179 4.40918 37.8179 6.66084C37.8179 6.98078 37.8485 7.29219 37.9123 7.58969C34.828 7.41918 32.0931 5.79751 30.2612 3.32866C29.9415 3.93309 29.7589 4.63309 29.7589 5.37975C29.7589 6.79411 30.4141 8.04245 31.4102 8.77475C30.8019 8.75411 30.2293 8.56834 29.7278 8.26501V8.31527C29.7278 10.2914 31.0065 11.94 32.707 12.3133C32.3947 12.4089 32.0677 12.4569 31.7277 12.4569C31.4891 12.4569 31.2551 12.4323 31.0302 12.3847C31.5016 14.0041 32.8729 15.1847 34.498 15.2161C33.2266 16.3105 31.6261 16.9616 29.8872 16.9616C29.5878 16.9616 29.2914 16.9441 29.0015 16.9055C30.6446 18.0619 32.5954 18.7372 34.6923 18.7372C41.5213 18.7372 45.2536 12.5233 45.2536 7.13469C45.2536 6.95745 45.2514 6.7811 45.2441 6.60745C45.9692 6.03219 46.6003 5.31334 47.0962 4.49533C46.4302 4.81975 45.7146 5.03918 44.9645 5.137Z" fill="white"/>
<path fill-rule="evenodd" clip-rule="evenodd" d="M76.0978 2.47745C78.6285 2.47745 78.9284 2.48732 79.9279 2.53488C80.852 2.57886 81.3539 2.73995 81.6878 2.87501C82.1303 3.05405 82.4461 3.26809 82.7778 3.61315C83.1091 3.95867 83.3146 4.28758 83.4865 4.74841C83.6162 5.09617 83.7709 5.61892 83.8131 6.58142C83.8588 7.62245 83.8682 7.93476 83.8682 10.5705C83.8682 13.2063 83.8588 13.5186 83.8131 14.5596C83.7709 15.5221 83.6162 16.0449 83.4865 16.3926C83.3146 16.8535 83.1091 17.1824 82.7778 17.5279C82.4461 17.873 82.1303 18.087 81.6878 18.266C81.3539 18.4016 80.852 18.5622 79.9279 18.6062C78.9284 18.6537 78.6289 18.6636 76.0978 18.6636C73.5667 18.6636 73.2673 18.6537 72.2678 18.6062C71.3437 18.5622 70.8417 18.4016 70.5078 18.266C70.0654 18.087 69.7496 17.873 69.4179 17.5279C69.0865 17.1824 68.881 16.8535 68.7091 16.3926C68.579 16.0449 68.4248 15.5221 68.3826 14.5596C68.3369 13.5186 68.3274 13.2063 68.3274 10.5705C68.3274 7.93476 68.3369 7.62245 68.3826 6.58142C68.4248 5.61892 68.579 5.09617 68.7091 4.74841C68.881 4.28758 69.0865 3.95867 69.4179 3.61315C69.7496 3.26809 70.0654 3.05405 70.5078 2.87501C70.8417 2.73995 71.3437 2.57886 72.2678 2.53488C73.2673 2.48732 73.5672 2.47745 76.0978 2.47745ZM76.0978 0.69873C73.5236 0.69873 73.2009 0.709948 72.1898 0.757961C71.1812 0.805974 70.4923 0.972897 69.8892 1.217C69.2658 1.46918 68.7371 1.80662 68.2102 2.3554C67.6833 2.90463 67.3594 3.45476 67.1172 4.10405C66.8829 4.73226 66.7226 5.44976 66.6765 6.50021C66.6304 7.55335 66.6196 7.88944 66.6196 10.5705C66.6196 13.2516 66.6304 13.5877 66.6765 14.6408C66.7226 15.6913 66.8829 16.4088 67.1172 17.037C67.3594 17.6863 67.6833 18.2364 68.2102 18.7852C68.7371 19.3344 69.2658 19.6719 69.8892 19.9241C70.4923 20.1682 71.1812 20.3351 72.1898 20.3831C73.2009 20.4311 73.5236 20.4423 76.0978 20.4423C78.672 20.4423 78.9947 20.4311 80.0054 20.3831C81.0144 20.3351 81.7033 20.1682 82.3065 19.9241C82.9299 19.6719 83.4581 19.3344 83.985 18.7852C84.5123 18.2364 84.8363 17.6863 85.0784 17.037C85.3128 16.4088 85.4731 15.6913 85.5192 14.6408C85.5653 13.5877 85.576 13.2516 85.576 10.5705C85.576 7.88944 85.5653 7.55335 85.5192 6.50021C85.4731 5.44976 85.3128 4.73226 85.0784 4.10405C84.8363 3.45476 84.5123 2.90463 83.985 2.3554C83.4581 1.80662 82.9299 1.46918 82.3065 1.217C81.7033 0.972897 81.0144 0.805974 80.0054 0.757961C78.9947 0.709948 78.672 0.69873 76.0978 0.69873ZM76.1168 5.51706C73.4267 5.51706 71.2459 7.78847 71.2459 10.5903C71.2459 13.3916 73.4267 15.663 76.1168 15.663C78.8064 15.663 80.9873 13.3916 80.9873 10.5903C80.9873 7.78847 78.8064 5.51706 76.1168 5.51706ZM76.1168 13.883C74.3706 13.883 72.9549 12.4089 72.9549 10.5903C72.9549 8.77162 74.3706 7.29713 76.1168 7.29713C77.8629 7.29713 79.2782 8.77162 79.2782 10.5903C79.2782 12.4089 77.8629 13.883 76.1168 13.883ZM82.266 5.28194C82.266 5.93123 81.7611 6.45713 81.1377 6.45713C80.5147 6.45713 80.0093 5.93123 80.0093 5.28194C80.0093 4.63309 80.5147 4.10674 81.1377 4.10674C81.7611 4.10674 82.266 4.63309 82.266 5.28194Z" fill="white"/>
</svg>
